HIERARCHY
ROOT Hips
{
  OFFSET 2.26061 22.2878 23.7974
  CHANNELS 6 Xposition Yposition Zposition Zrotation Xrotation Yrotation
  JOINT LeftUpLeg
  {
    OFFSET 8.64259 1.95398 -2.38835
    CHANNELS 3 Zrotation Xrotation Yrotation
    JOINT LeftLeg
    {
      OFFSET 43.7702 0 0
      CHANNELS 3 Zrotation Xrotation Yrotation
      JOINT LeftFoot
      {
        OFFSET 40.6238 0 0
        CHANNELS 3 Zrotation Xrotation Yrotation
        JOINT LeftToeBase
        {
          OFFSET 12.7242 0 0
          CHANNELS 3 Zrotation Xrotation Yrotation
          End Site
          {
            OFFSET 0 0 0
          }
        }
      }
    }
  }
  JOINT RightUpLeg
  {
    OFFSET -8.2249 1.95398 -2.59336
    CHANNELS 3 Zrotation Xrotation Yrotation
    JOINT RightLeg
    {
      OFFSET 43.5653 0 0
      CHANNELS 3 Zrotation Xrotation Yrotation
      JOINT RightFoot
      {
        OFFSET 40.6238 0 0
        CHANNELS 3 Zrotation Xrotation Yrotation
        JOINT RightToeBase
        {
          OFFSET 12.7242 0 0
          CHANNELS 3 Zrotation Xrotation Yrotation
          End Site
          {
            OFFSET 0 0 0
          }
        }
      }
    }
  }
  JOINT Spine
  {
    OFFSET 0.165834 0.87714 6.61349
    CHANNELS 3 Zrotation Xrotation Yrotation
    JOINT Spine1
    {
      OFFSET 7.38963 1.71661e-005 0
      CHANNELS 3 Zrotation Xrotation Yrotation
      JOINT Spine2
      {
        OFFSET 11.9445 1.14441e-005 0
        CHANNELS 3 Zrotation Xrotation Yrotation
        JOINT Spine3
        {
          OFFSET 14.7254 4.19617e-005 0
          CHANNELS 3 Zrotation Xrotation Yrotation
          JOINT Spine4
          {
            OFFSET 10.9679 0 0
            CHANNELS 3 Zrotation Xrotation Yrotation
            JOINT RightShoulder
            {
              OFFSET 2.46616 -1.6653 3.69651
              CHANNELS 3 Zrotation Xrotation Yrotation
              JOINT RightArm
              {
                OFFSET 13.0012 0 0
                CHANNELS 3 Zrotation Xrotation Yrotation
                JOINT RightForeArm
                {
                  OFFSET 28.7848 1.52588e-005 0
                  CHANNELS 3 Zrotation Xrotation Yrotation
                  JOINT RightHand
                  {
                    OFFSET 26.5688 1.52588e-005 0
                    CHANNELS 3 Zrotation Xrotation Yrotation
                    End Site
                    {
                      OFFSET 0 0 0
                    }
                  }
                }
              }
            }
            JOINT LeftShoulder
            {
              OFFSET 2.38034 -1.29275 -3.7523
              CHANNELS 3 Zrotation Xrotation Yrotation
              JOINT LeftArm
              {
                OFFSET 16.3182 6.10351e-005 0
                CHANNELS 3 Zrotation Xrotation Yrotation
                JOINT LeftForeArm
                {
                  OFFSET 27.0901 0 0
                  CHANNELS 3 Zrotation Xrotation Yrotation
                  JOINT LeftHand
                  {
                    OFFSET 24.5451 1.52588e-005 0
                    CHANNELS 3 Zrotation Xrotation Yrotation
                    End Site
                    {
                      OFFSET 0 0 0
                    }
                  }
                }
              }
            }
            JOINT Neck
            {
              OFFSET 5.0226 -0.0266342 0
              CHANNELS 3 Zrotation Xrotation Yrotation
              JOINT Head
              {
                OFFSET 6.69363 2.86102e-005 0
                CHANNELS 3 Zrotation Xrotation Yrotation
                End Site
                {
                  OFFSET 0 0 0
                }
              }
            }
          }
        }
      }
    }
  }
}
MOTION
Frames:	15
Frame Time:	0.0416667
-31.6992 11.6718 11.3486 2.50159 -1.54077 77.7586 -175.177 9.78507 89.8116 -24.1483 31.759 0.954884 53.0337 -4.05997 -1.91942 73.3863 37.6739 6.08448 177.557 10.6778 88.5529 -30.526 -17.5139 -7.50214 55.1806 1.07016 0.978548 56.1965 3.5052 11.895 0.430198 6.55631 -90.6228 13.763 0.549872 -1.32095 2.09148 0.491194 -1.3439 -20.4406 0.921413 -1.09466 -0.427988 0.921433 -1.09467 100.895 -43.7242 -84.1512 -39.6281 42.6393 52.4946 -21.7416 -0.107771 -136.869 -51.912 0.0188718 -2.04057 -101.324 -49.2341 61.7984 49.7421 -27.9375 74.0448 14.1818 7.24319 -147.091 59.5856 7.00706 7.42447 34.1332 -17.9835 39.8774 -15.8576 -29.1486 -42.0339 
-31.72 11.7042 11.3537 2.45209 -1.47278 77.7428 -174.893 9.85045 89.9343 -23.9831 32.1243 0.689417 53.1451 -3.99841 -1.48645 74.298 37.557 4.39375 177.653 10.8231 88.6012 -30.7087 -17.5954 -7.59454 55.4381 0.99068 0.91572 56.1749 3.46899 11.7136 0.389117 6.59599 -90.6479 13.6829 0.456765 -1.35801 2.01129 0.396543 -1.3768 -20.5201 0.843749 -1.15799 -0.507463 0.843754 -1.158 100.725 -43.178 -84.4574 -39.1535 43.6946 52.4033 -20.7382 -0.710733 -136.887 -50.9665 0.386153 -2.9068 -100.982 -49.9726 62.5776 48.8234 -27.7496 73.2758 14.0564 7.33031 -147.017 61.1162 7.28459 7.52447 31.1809 -19.8539 37.1579 -10.9169 -30.5505 -40.4558 
-31.7128 11.7174 11.3622 2.50788 -1.41192 77.6316 -175.327 9.81879 89.6426 -24.1867 31.7536 1.02261 53.3028 -3.83687 -1.60145 72.5889 36.5199 5.1435 177.542 10.7578 88.4386 -30.6376 -17.6622 -7.53197 55.5148 0.939318 0.875864 56.0387 3.48052 11.8977 0.418075 6.62492 -90.6698 13.6254 0.503964 -1.40745 1.9537 0.441547 -1.42828 -20.5775 0.903645 -1.19098 -0.564901 0.903637 -1.19098 101.275 -42.9964 -83.527 -38.7775 44.0566 51.4597 -18.7818 -3.17613 -136.935 -49.137 0.288277 -3.10857 -101.895 -50.5477 61.4908 50.7198 -27.4953 73.8826 13.2444 8.91148 -146.241 58.7591 6.43286 6.63963 30.8379 -19.7627 37.2904 -11.9811 -30.0613 -41.0612 
-31.724 11.752 11.3931 2.61908 -1.32623 77.611 -175.373 9.75484 89.6353 -24.1564 31.8725 1.04976 53.0731 -3.96184 -1.27114 74.0911 37.0034 3.65483 177.478 10.7191 88.4345 -30.7304 -17.5596 -7.53045 55.4472 0.99159 0.917295 56.2071 3.45291 11.5972 0.401538 6.66573 -90.6708 13.5435 0.471277 -1.40435 1.87181 0.409026 -1.42373 -20.6593 0.871525 -1.19783 -0.64665 0.871524 -1.19784 101.288 -42.8825 -83.5117 -38.4636 44.3323 51.5198 -18.4525 -3.51474 -137.21 -49.2258 0.233214 -3.00387 -101.742 -50.3126 61.6162 50.4192 -27.5226 73.8104 13.4536 8.91599 -145.799 59.8631 6.5075 6.5331 29.857 -20.2958 36.9997 -11.5762 -30.2663 -41.4535 
-31.7006 11.7203 11.3929 2.43923 -1.48995 77.6848 -175.236 9.83325 89.7332 -24.0685 31.7861 0.963712 53.1742 -3.90666 -1.17885 74.2406 36.9345 3.28179 177.668 10.8508 88.572 -30.6935 -17.4586 -7.59238 55.3927 0.989879 0.915713 56.105 3.51955 12.0557 0.235217 6.57 -90.5356 13.7336 0.205846 -1.10045 2.06225 0.157236 -1.10846 -20.4699 0.527045 -0.987732 -0.457239 0.527058 -0.987734 99.8905 -46.0701 -85.7218 -39.9728 42.9724 51.1654 -18.3508 -3.15734 -136.95 -49.3771 0.0996453 -2.77918 -98.2603 -49.7197 66.4338 48.3225 -26.666 72.2537 13.7398 7.60617 -145.636 60.8468 6.37687 6.11963 28.4171 -20.2829 35.0543 -11.4246 -29.2214 -41.3533 
-31.6979 11.7491 11.3836 2.5916 -1.28886 77.719 -175.376 9.82583 89.7223 -24.2455 31.8597 1.10688 53.1289 -3.93872 -1.41812 73.4693 36.7591 4.1753 177.542 10.6875 88.5429 -30.5944 -17.4762 -7.49764 55.3383 1.01052 0.93208 56.1154 3.52964 12.1029 0.0211371 6.49156 -90.3984 13.8897 -0.152385 -0.778658 2.21858 -0.186503 -0.771194 -20.3147 0.0886611 -0.788442 -0.302104 0.0886714 -0.788464 98.4589 -49.755 -87.7746 -42.8477 41.9097 51.382 -17.9401 -3.69652 -136.769 -48.9978 0.0672472 -2.83388 -94.8935 -48.9615 71.1556 45.4432 -25.6214 70.4026 14.0853 5.72536 -146.17 59.3002 7.23211 7.86479 26.9528 -20.0649 33.4462 -11.356 -28.1098 -41.6217 
-31.6823 11.729 11.386 2.5105 -1.47288 77.8138 -175.252 9.89437 89.8347 -24.3402 31.845 1.04782 53.015 -4.04878 -1.26146 73.8809 36.6602 3.32105 177.638 10.7008 88.6371 -30.5197 -17.625 -7.51989 55.2279 1.03136 0.948143 56.1865 3.516 11.9642 -0.0983996 6.37093 -90.2629 14.131 -0.323676 -0.482763 2.46001 -0.344597 -0.468041 -20.0745 -0.163628 -0.557713 -0.0618523 -0.163611 -0.557714 97.0104 -52.6559 -89.7432 -44.4886 40.1074 51.4869 -17.6362 -3.44711 -136.625 -49.0892 0.0401591 -2.84588 -92.5343 -47.2676 74.234 43.6367 -24.3597 69.8696 14.2406 4.95649 -145.85 60.5229 6.88591 7.01145 23.3018 -20.7296 30.9971 -9.03342 -27.8173 -41.2795 
-31.6713 11.7346 11.3829 2.53896 -1.43516 77.8124 -175.262 9.857 89.8269 -24.274 31.8735 1.04921 52.9814 -4.05651 -1.19787 73.8368 36.499 3.07326 177.662 10.7063 88.6545 -30.6123 -17.6804 -7.57209 55.2934 1.02077 0.940439 55.8537 3.43341 11.7985 -0.229054 6.29521 -90.1656 14.2829 -0.534996 -0.257965 2.612 -0.545836 -0.234174 -19.9236 -0.432755 -0.406818 0.089087 -0.43275 -0.40683 95.3366 -54.7263 -91.9967 -45.7955 38.7568 51.5425 -18.3565 -1.83697 -136.297 -49.9472 0.116961 -2.89115 -90.7545 -46.5039 76.779 42.1918 -23.4699 69.0626 14.2081 4.31492 -145.904 60.741 6.93203 7.03796 22.1639 -20.5477 30.4883 -9.2169 -27.1659 -41.7603 
-31.6963 11.742 11.386 2.43197 -1.34118 77.7586 -175.31 10.0002 89.7746 -24.2947 31.7815 1.05518 53.2161 -3.89146 -1.42291 73.6674 36.7689 3.87428 177.669 10.8134 88.6002 -30.5773 -17.5432 -7.55554 55.2822 1.01586 0.936495 56.2683 3.53891 12.0175 -0.340075 6.25171 -90.0613 14.3707 -0.703665 -0.0243209 2.69997 -0.70407 0.00667088 -19.8366 -0.663826 -0.2347 0.176079 -0.663839 -0.234681 95.3805 -56.958 -91.6702 -44.5324 37.4179 48.608 -17.7003 -1.15992 -135.53 -50.7162 0.00158491 -2.78787 -89.034 -45.5814 79.2549 40.6963 -22.9279 68.1051 14.0669 3.58295 -146.152 58.4146 7.0927 7.84522 21.2106 -20.72 28.2896 -8.04038 -26.8982 -40.4457 
-31.6811 11.7099 11.3914 2.42872 -1.32068 77.689 -175.349 9.88782 89.7024 -24.0831 31.7822 1.04977 52.9968 -4.02158 -1.29668 73.8431 36.6103 3.28216 177.648 10.8841 88.564 -30.737 -17.5415 -7.61381 55.2536 1.05649 0.968143 56.4747 3.54733 11.8821 -0.419174 6.22599 -89.9882 14.4227 -0.824264 0.139952 2.75207 -0.817313 0.176084 -19.7852 -0.828224 -0.11427 0.22747 -0.828222 -0.11427 94.5569 -58.4133 -92.6587 -45.7633 37.4091 48.5603 -17.7316 -1.36165 -135.527 -49.3435 0.0727034 -3.00355 -87.8996 -45.0915 80.9467 40.0064 -22.6521 67.4864 14.1739 3.27725 -145.944 60.8808 6.91207 6.97427 21.035 -20.5471 27.064 -7.86751 -26.4227 -39.6261 
-31.6425 11.6772 11.3798 2.34567 -1.37418 77.7597 -175.353 9.98256 89.7324 -24.2783 31.7571 1.0877 53.2616 -3.843 -1.18466 72.7163 35.9526 3.80164 177.666 10.8941 88.5973 -30.5939 -17.525 -7.55456 55.0032 1.12362 1.01991 56.6375 3.55696 11.7948 -0.474458 6.1953 -89.9512 14.4847 -0.915389 0.227763 2.81409 -0.9045 0.26783 -19.7237 -0.941533 -0.0579083 0.288995 -0.941537 -0.0579224 93.9848 -59.9327 -93.2576 -46.326 36.9195 47.6921 -17.6605 -1.14918 -135.171 -49.7633 0.0830234 -3.05649 -87.1282 -44.7452 82.1085 39.1521 -22.3143 66.9501 13.849 3.34019 -145.94 60.4734 7.01305 7.22928 19.7117 -20.5689 26.7122 -7.30631 -26.2598 -40.0214 
-31.6379 11.6754 11.3822 2.37124 -1.41079 77.6993 -175.385 9.9269 89.6696 -24.3261 31.482 1.10883 53.4784 -3.66885 -1.19828 72.5852 35.6503 3.41223 177.667 10.8629 88.5457 -30.6328 -17.5696 -7.58727 55.0801 1.09026 0.994067 56.7759 3.53366 11.5504 -0.509412 6.18239 -89.9205 14.5109 -0.969397 0.297513 2.8403 -0.955377 0.339858 -19.6978 -1.01398 -0.00763744 0.31488 -1.01399 -0.00763243 93.3218 -60.7924 -94.0489 -46.7886 36.4886 47.539 -17.5499 -0.897033 -135.071 -50.3641 -0.0646867 -2.74548 -86.8977 -44.4444 82.4225 39.7208 -22.4076 67.4499 14.29 2.8889 -146.084 60.0191 7.13704 7.53775 18.9736 -20.2673 26.869 -6.87327 -26.0093 -40.2589 
-31.6176 11.669 11.3806 2.36558 -1.43938 77.7219 -175.328 10.0003 89.7002 -24.5145 31.4312 1.0683 53.6025 -3.60531 -1.45713 70.7409 34.8633 4.91518 177.663 10.8674 88.5755 -30.6112 -17.3988 -7.55409 55.0775 1.08909 0.993936 56.563 3.53635 11.7465 -0.535763 6.18333 -89.9061 14.5093 -1.01453 0.332738 2.83866 -0.998902 0.377055 -19.6996 -1.06764 0.0124131 0.313005 -1.06763 0.012389 92.2624 -61.3973 -95.3973 -48.5271 36.9297 48.5745 -17.7129 -1.55206 -135.231 -48.905 0.109593 -3.13327 -86.8426 -44.4621 82.5141 40.2221 -22.2451 67.6369 14.2995 3.01486 -145.96 60.3587 6.99972 7.23543 17.7431 -20.2973 26.5363 -5.52186 -26.1478 -40.019 
-31.6199 11.6583 11.3363 2.35891 -1.48713 77.7726 -175.218 9.95925 89.7076 -24.534 31.3261 0.970069 53.828 -3.44852 -1.44414 70.5463 34.7786 5.07763 177.663 10.8281 88.5934 -30.5793 -17.3299 -7.53891 55.0714 1.08874 0.994826 56.1615 3.55316 12.1914 -0.555532 6.23489 -89.9174 14.4062 -1.05957 0.315078 2.73566 -1.04463 0.361415 -19.803 -1.10525 -0.0179626 0.209668 -1.10525 -0.0179499 92.402 -61.2893 -95.2269 -47.3805 36.8114 47.0815 -17.9589 -1.0463 -134.86 -49.9366 0.0882471 -3.07608 -86.5209 -44.6088 83.056 39.5705 -22.4036 67.1096 14.3447 2.8686 -146.078 62.0851 7.35739 7.41643 18.7245 -20.0017 26.8974 -6.03246 -25.997 -39.714 
-31.6373 11.6582 11.318 2.3635 -1.46915 77.7989 -175.129 9.84369 89.7179 -24.2683 31.079 0.874251 54.2119 -3.177 -1.93885 68.5209 34.6503 8.43959 177.629 10.8739 88.6169 -30.7325 -17.3 -7.51679 55.4064 0.982915 0.91328 56.0405 3.42585 11.586 -0.567915 6.24269 -89.9325 14.3906 -1.09148 0.289055 2.72009 -1.0777 0.336799 -19.8188 -1.12788 -0.0523968 0.19389 -1.12788 -0.0523848 91.1139 -60.5237 -97.0978 -48.0049 36.328 48.315 -18.1405 -1.38323 -135.058 -49.7983 0.182488 -3.26219 -86.7874 -44.4244 82.5959 38.3082 -21.8955 66.6753 14.8336 1.99215 -145.93 63.0302 7.71077 7.70349 16.0749 -20.384 26.9617 -3.66995 -26.6156 -40.5039 
